:SAMPLES-PER-SECOND 30
:FULLY-SPECIFIED
:DEGREES
37
root  2.76921 39.3371 0.282601 -108.426 -85.5109 107.79
RightUpLeg  8.26562 -11.3406 -8.98195
RightLeg  9.03916 3.64134 0.479434
RightFoot  -15.6221 -0.0503589 1.47913
RightToes  -5.8209e-011 0 -3.6325e-017
Spine  5.63083 0.460342 7.03016
Spine1  2.37986 1.84608 -5.52361
HEad  -13.7144 5.31368 -7.42017
LeftShoulder1  0.283346 2.1055 -13.2132
LeftArm  -19.2149 14.732 -18.0449
LeftForeArm  8.60017 -12.3589 -0.374073
LeftHand  0.0930106 7.31136 7.36582
RightShoulder  0.111234 -2.89203 11.5704
RightArm  -11.0197 -7.94699 11.3504
RightForeArm  -3.59999 12.4907 -1.61966
RightHand  -0.291241 4.64857 -3.64762
LeftUpLeg  -18.9043 4.53674 1.52719
LeftLeg  11.7615 -0.707353 -0.0158403
LeftFoot  -1.95605 0.458629 -5.44388
LeftToes  -8.31281e-010 4.41007e-011 3.74621e-011
38
root  2.18189 39.2325 0.514046 -107.355 -85.6017 107.17
RightUpLeg  8.92277 -11.3907 -9.42585
RightLeg  8.79669 3.85954 0.430905
RightFoot  -16.337 -0.01308 2.22989
RightToes  -5.8209e-011 0 -3.6325e-017
Spine  5.51809 0.551795 6.74827
Spine1  1.98367 2.00535 -6.12593
HEad  -14.2435 4.95979 -6.54682
LeftShoulder1  0.2778 2.10235 -12.7441
LeftArm  -19.8872 14.4289 -17.1684
LeftForeArm  8.30149 -13.1817 -0.440875
LeftHand  0.0393425 6.37163 7.77484
RightShoulder  0.0877971 -3.01833 11.6883
RightArm  -12.3884 -8.09897 10.5097
RightForeArm  -3.24429 13.8855 -1.13586
RightHand  -0.355924 4.95342 -4.29563
LeftUpLeg  -19.3082 5.01022 1.68799
LeftLeg  10.7322 0.115772 0.0371136
LeftFoot  -2.07068 0.412693 -4.93074
LeftToes  -8.31281e-010 4.41007e-011 3.74621e-011
39
root  1.51721 39.089 0.820175 -105.188 -85.7743 105.148
RightUpLeg  10.0343 -11.4782 -10.027
RightLeg  8.62515 4.01041 0.329559
RightFoot  -17.1832 0.0422608 3.11476
RightToes  -5.8209e-011 0 -3.6325e-017
Spine  5.5237 0.555469 6.39647
Spine1  1.80203 2.03429 -6.36868
HEad  -14.8176 4.68653 -5.89341
LeftShoulder1  0.300882 1.99259 -12.8505
LeftArm  -21.233 14.6126 -16.5774
LeftForeArm  8.99825 -14.6997 -0.673205
LeftHand  0.024332 5.99867 8.75754
RightShoulder  0.0838597 -3.04309 11.869
RightArm  -15.4856 -8.80224 10.1601
RightForeArm  -0.835439 15.9879 -0.263405
RightHand  -0.329044 5.2013 -3.91028
LeftUpLeg  -19.6157 5.53771 1.55945
LeftLeg  11.1779 1.62312 0.326734
LeftFoot  -2.18642 0.33435 -4.01704
LeftToes  -8.31281e-010 4.41007e-011 3.74621e-011
40
root  0.773052 38.951 1.1752 -106.115 -85.6772 105.997
RightUpLeg  11.5021 -11.58 -11.0304
RightLeg  8.35119 4.63034 0.12635
RightFoot  -17.9061 0.118822 4.17748
RightToes  -5.8209e-011 0 -3.6325e-017
Spine  5.3126 0.720182 5.83434
Spine1  2.25304 2.28495 -6.69836
HEad  -15.4901 4.37396 -5.55436
LeftShoulder1  0.295396 2.07462 -13.6547
LeftArm  -22.7509 14.2606 -16.2151
LeftForeArm  10.1208 -16.0367 -1.00448
LeftHand  0.0520316 6.38967 8.89617
RightShoulder  0.071861 -3.10854 12.0786
RightArm  -19.1608 -9.67813 10.5375
RightForeArm  1.61126 18.0412 0.96674
RightHand  -0.366998 5.30086 -4.28911
LeftUpLeg  -19.37 6.48814 1.04289
LeftLeg  12.2728 3.05341 0.666943
LeftFoot  -1.07651 0.325379 -3.53349
LeftToes  -8.31281e-010 4.41007e-011 3.74621e-011
41
root  -0.0375997 38.7725 1.59355 -104.932 -85.4478 104.499
RightUpLeg  13.0397 -11.7877 -12.5033
RightLeg  8.79679 5.4795 -0.010606
RightFoot  -18.8398 0.244487 5.67845
RightToes  -5.8209e-011 0 -3.6325e-017
Spine  5.61784 0.709675 5.48849
Spine1  2.07969 2.47168 -7.71163
HEad  -15.5474 3.65064 -4.42139
LeftShoulder1  0.281423 2.15153 -13.9037
LeftArm  -23.6863 14.2894 -16.7479
LeftForeArm  11.0634 -17.0334 -1.38381
LeftHand  -0.026671 5.29584 9.20052
RightShoulder  0.0481891 -3.24029 12.7161
RightArm  -21.0705 -10.49 11.3481
RightForeArm  3.00755 19.6781 2.3138
RightHand  -0.417106 5.47706 -4.76799
LeftUpLeg  -19.0625 7.39698 0.0953815
LeftLeg  14.3773 3.24891 0.996331
LeftFoot  1.26024 0.325662 -3.04119
LeftToes  -8.31281e-010 4.41007e-011 3.74621e-011
42
root  -0.895158 38.6035 2.04502 -101.287 -84.9276 100.225
RightUpLeg  14.6782 -11.534 -14.2489
RightLeg  9.84498 5.74131 -0.281671
RightFoot  -19.578 0.42424 7.71177
RightToes  -5.8209e-011 0 -3.6325e-017
Spine  6.08996 0.646839 3.89508
Spine1  2.16251 2.32266 -7.46658
HEad  -15.7326 3.12213 -3.9715
LeftShoulder1  0.158433 2.78496 -15.1207
LeftArm  -23.5489 13.486 -17.3662
LeftForeArm  11.1382 -17.1522 -1.52574
LeftHand  -0.0243793 5.32724 8.52908
RightShoulder  0.0464831 -3.24994 13.049
RightArm  -22.5321 -11.0344 13.1784
RightForeArm  5.16855 20.8051 3.15478
RightHand  -0.450875 5.17289 -5.25382
LeftUpLeg  -18.9679 8.9451 -1.43784
LeftLeg  17.7218 1.14035 0.709139
LeftFoot  1.17938 0.0767151 -0.736443
LeftToes  -8.31281e-010 4.41007e-011 3.74621e-011
43
root  -1.78423 38.422 2.542 -87.6808 -84.4437 85.6093
RightUpLeg  16.1694 -10.3835 -15.9007
RightLeg  12.633 4.69185 -0.0876456
RightFoot  -20.0149 0.685909 10.8108
RightToes  -5.8209e-011 0 -3.6325e-017
Spine  6.43253 0.226921 2.77039
Spine1  2.96368 1.94621 -7.74796
HEad  -15.7375 1.97774 -3.23357
LeftShoulder1  0.105996 3.03852 -15.8875
LeftArm  -22.5847 12.103 -19.1515
LeftForeArm  10.8677 -16.1903 -1.29072
LeftHand  -0.0283803 5.27453 8.43892
RightShoulder  -0.0149012 -3.55058 14.4941
RightArm  -22.9629 -11.3425 15.0449
RightForeArm  6.98996 21.5633 3.63603
RightHand  -0.482261 5.15775 -5.60564
LeftUpLeg  -18.5286 7.25989 -2.71573
LeftLeg  21.5784 1.7993 1.12226
LeftFoot  -1.042 -0.0516332 0.645605
LeftToes  -8.31281e-010 4.41007e-011 3.74621e-011
44
root  -2.64507 38.3146 3.03146 -80.3698 -83.7229 77.368
RightUpLeg  16.6337 -7.38596 -17.0007
RightLeg  16.6413 2.39829 0.294916
RightFoot  -19.4619 0.951245 15.2423
RightToes  -5.8209e-011 0 -3.6325e-017
Spine  6.64714 0.237602 1.53277
Spine1  3.94087 1.90739 -8.35492
HEad  -15.4308 1.55822 -3.15794
LeftShoulder1  0.11133 3.03179 -16.8331
LeftArm  -20.5212 10.4439 -21.461
LeftForeArm  11.1244 -14.2651 -1.12539
LeftHand  0.048184 6.47829 7.85588
RightShoulder  -0.0940775 -3.89179 16.0087
RightArm  -22.5861 -11.9591 17.0643
RightForeArm  9.96358 22.0704 3.83352
RightHand  -0.401626 5.10507 -4.74248
LeftUpLeg  -17.3079 6.18222 -4.05421
LeftLeg  23.9176 2.30722 1.4576
LeftFoot  -3.0585 -0.128889 2.0371
LeftToes  -8.31281e-010 4.41007e-011 3.74621e-011
45
root  -3.47205 38.2738 3.49018 -85.7578 -83.236 82.0704
RightUpLeg  14.7523 -3.52094 -17.4946
RightLeg  23.3509 0.382491 0.0126573
RightFoot  -17.2885 0.927236 20.3598
RightToes  -5.8209e-011 0 -3.6325e-017
Spine  7.15649 0.852972 0.146769
Spine1  4.14911 2.26318 -8.82092
HEad  -14.1032 1.10438 -2.76907
LeftShoulder1  0.0391017 3.34102 -18.1519
LeftArm  -17.9007 8.58934 -23.7976
LeftForeArm  11.4037 -11.2692 -1.41353
LeftHand  0.0668264 6.97782 6.97386
RightShoulder  -0.167673 -4.17671 17.4045
RightArm  -20.7337 -12.0052 19.6733
RightForeArm  12.0178 21.3562 3.28193
RightHand  -0.343721 4.86817 -4.18222
LeftUpLeg  -15.7143 6.33051 -5.1864
LeftLeg  25.238 2.80408 1.79162
LeftFoot  -5.13942 -0.122848 2.81083
LeftToes  -8.31281e-010 4.41007e-011 3.74621e-011
46
root  -4.31585 38.345 3.93807 -88.3105 -83.1508 84.3111
RightUpLeg  10.7545 -1.72216 -17.9404
RightLeg  32.5138 -0.38969 -0.526969
RightFoot  -11.2348 -0.0145665 20.2006
RightToes  -5.8209e-011 0 -3.6325e-017
Spine  7.19497 1.1223 -1.12398
Spine1  4.15705 2.17029 -7.98721
HEad  -12.8533 1.23573 -3.18798
LeftShoulder1  -0.0411121 3.66135 -20.2184
LeftArm  -16.3091 7.07381 -25.9862
LeftForeArm  12.5659 -8.00547 -1.8522
LeftHand  0.110861 8.12099 6.22746
RightShoulder  -0.197998 -4.27153 18.3286
RightArm  -18.6544 -11.8254 23.2535
RightForeArm  13.4516 20.3144 2.53057
RightHand  -0.286186 4.81663 -3.54989
LeftUpLeg  -13.928 5.59757 -5.86465
LeftLeg  25.4469 3.76157 2.30043
LeftFoot  -6.82086 -0.0698885 2.81083
LeftToes  -8.31281e-010 4.41007e-011 3.74621e-011
47
root  -5.1854 38.5233 4.34962 -91.9115 -83.5333 87.5893
RightUpLeg  5.56788 0.0730981 -17.3062
RightLeg  42.2098 -1.24087 -1.49234
RightFoot  -1.65432 -1.08682 12.5573
RightToes  -5.8209e-011 0 -3.6325e-017
Spine  7.0699 1.20855 -0.941525
Spine1  4.35614 2.37174 -8.26928
HEad  -11.6064 0.835704 -2.64431
LeftShoulder1  -0.0298866 3.6088 -21.0141
LeftArm  -15.2012 5.93854 -29.1026
LeftForeArm  12.8299 -5.00539 -2.17017
LeftHand  0.110464 8.69656 5.15682
RightShoulder  -0.247841 -4.42238 19.7196
RightArm  -14.9878 -11.6251 27.0747
RightForeArm  11.6815 18.8207 1.74267
RightHand  -0.307201 4.83538 -3.78749
LeftUpLeg  -11.5169 6.07028 -5.93147
LeftLeg  24.5135 3.87968 2.28375
LeftFoot  -8.05552 -0.0357297 2.94049
LeftToes  -8.31281e-010 4.41007e-011 3.74621e-011
48
root  -5.93426 38.6157 4.64869 -95.0439 -83.6906 90.239
RightUpLeg  0.724765 1.26551 -16.6814
RightLeg  50.1237 -0.94909 -1.51438
RightFoot  3.07608 -1.09022 8.60968
RightToes  -5.8209e-011 0 -3.6325e-017
Spine  7.58028 1.23331 -1.78965
Spine1  4.68847 2.1985 -8.06305
HEad  -11.5118 1.58089 -2.85583
LeftShoulder1  -0.159483 4.04594 -23.1307
LeftArm  -14.0128 3.96311 -31.0944
LeftForeArm  13.6475 -2.17862 -2.60587
LeftHand  0.0619602 8.14984 4.25956
RightShoulder  -0.287298 -4.53805 20.6171
RightArm  -12.4876 -11.4907 31.355
RightForeArm  13.0538 17.8431 1.27229
RightHand  -0.219705 4.3984 -2.84807
LeftUpLeg  -9.33868 6.76641 -6.00462
LeftLeg  23.9445 3.63636 2.11933
LeftFoot  -9.28024 -0.000282566 3.10822
LeftToes  -8.31281e-010 4.41007e-011 3.74621e-011
49
root  -6.67512 38.701 4.91004 -92.7388 -84.0567 87.5027
RightUpLeg  -3.48888 1.31322 -15.7815
RightLeg  55.8572 0.474826 0.32317
RightFoot  1.03497 -1.00766 9.33692
RightToes  -5.8209e-011 0 -3.6325e-017
Spine  7.60451 0.93665 -2.89757
Spine1  5.84633 1.596 -7.07796
HEad  -12.0484 2.13893 -3.17014
LeftShoulder1  -0.268436 4.36036 -24.9984
LeftArm  -13.5334 2.54499 -33.6405
LeftForeArm  15.1013 -1.19373 -2.87531
LeftHand  0.0743711 9.36427 3.41479
RightShoulder  -0.320554 -4.62969 21.3963
RightArm  -10.3075 -11.4494 35.4248
RightForeArm  15.1524 17.7962 1.46171
RightHand  -0.0709842 3.48546 -1.20067
LeftUpLeg  -7.30626 6.45874 -5.90772
LeftLeg  23.4226 3.79568 2.13089
LeftFoot  -10.4161 0.0369093 3.21603
LeftToes  -8.31281e-010 4.41007e-011 3.74621e-011
50
root  -7.45342 38.8101 5.12641 -90.6323 -84.6114 85.1121
RightUpLeg  -7.74632 1.04397 -14.2583
RightLeg  59.24 1.04107 1.40673
RightFoot  0.466806 -0.916855 8.86757
RightToes  -5.8209e-011 0 -3.6325e-017
Spine  7.59604 0.690871 -3.47715
Spine1  6.71615 1.14611 -6.45368
HEad  -12.0862 1.99659 -3.34224
LeftShoulder1  -0.376001 4.63774 -27.0051
LeftArm  -12.9687 1.14909 -35.9014
LeftForeArm  17.8342 -1.07217 -3.25203
LeftHand  0.0358433 8.44888 2.91617
RightShoulder  -0.37985 -4.79964 22.2769
RightArm  -7.50157 -11.8432 38.9538
RightForeArm  15.6863 18.1218 1.9837
RightHand  -0.135281 3.49073 -2.00607
LeftUpLeg  -5.18716 6.58034 -5.41741
LeftLeg  22.5487 3.60422 1.84702
LeftFoot  -11.3701 0.0690731 3.46395
LeftToes  -8.31281e-010 4.41007e-011 3.74621e-011
51
root  -8.24052 38.912 5.32798 -88.7345 -84.9122 83.3135
RightUpLeg  -12.1024 0.313198 -12.7968
RightLeg  60.2761 0.962035 1.33719
RightFoot  -0.841463 -0.729186 7.86115
RightToes  -5.8209e-011 0 -3.6325e-017
Spine  7.75685 0.352726 -3.94634
Spine1  6.63158 0.757252 -6.37627
HEad  -12.4964 2.1459 -3.24699
LeftShoulder1  -0.400126 4.6729 -28.0291
LeftArm  -11.7381 0.859965 -38.3398
LeftForeArm  19.1483 -2.33341 -4.17263
LeftHand  0.0848283 8.75272 4.33717
RightShoulder  -0.497895 -5.12728 23.858
RightArm  -2.55823 -12.2273 41.4392
RightForeArm  14.1227 18.2855 2.66097
RightHand  -0.22477 3.918 -3.07343
LeftUpLeg  -3.31037 6.36756 -5.22437
LeftLeg  21.3019 3.84227 1.63668
LeftFoot  -12.1186 0.0966615 3.5164
LeftToes  -8.31281e-010 4.41007e-011 3.74621e-011
